<svg width="570" height="199" fill="none" xmlns="http://www.w3.org/2000/svg">
  <path d="M295 175.2a3 3 0 010-4.2l21.6-21.7a3 3 0 014.3 0l21.6 21.7a3 3 0 010 4.2L320.9 197a3 3 0 01-4.3 0L295 175.2z" fill="#C8D1FF"/>
  <path d="M360.7 147.8c0 .4-.4.8-.8.8h-82.6a.8.8 0 01-.8-.8v-40a42 42 0 1184.2 0v40z" fill="#F8D162"/>
  <path d="M348.5 13.3h.3l14.5 21-.1.3-10.4 7.2a12.9 12.9 0 11-14.7-21.3l10.4-7.2z" fill="#FF8585"/>
  <path d="M337.5 48a18 18 0 01-18.1 17.8A18 18 0 01301.2 48a18 18 0 0118.2-17.8c10 0 18.1 8 18.1 17.8z" fill="#8CDD94"/>
  <path d="M508.7 58.4a3 3 0 010-4.2l12.5-12.6a3 3 0 014.2 0L538 54.2a3 3 0 010 4.2L525.4 71a3 3 0 01-4.2 0l-12.5-12.6z" fill="#C8D1FF"/>
  <path d="M476.5 118.8a46.8 46.8 0 1193.7 0 46.8 46.8 0 01-93.7 0z" fill="#8CDD94"/>
  <path d="M540.6 197.8c0 .2-.1.3-.3.3H507a.3.3 0 01-.3-.3v-15.2a17 17 0 1134 0v15.2z" fill="#FF8585"/>
  <path d="M201.6 130.7a3 3 0 013-3h21a3 3 0 013 3v65.2a3 3 0 01-3 3h-21a3 3 0 01-3-3v-65.2z" fill="#8CDD94"/>
  <path d="M190.1 96.8a3 3 0 014.1 1l6.2 9.9a3 3 0 01-1 4.1l-10 6.2a3 3 0 01-4-1l-6.2-10a3 3 0 011-4.1l10-6.1z" fill="#C8D1FF"/>
  <path d="M200 113.4a14.3 14.3 0 1128.7 0 14.3 14.3 0 01-28.7 0z" fill="#FF8585"/>
  <path d="M413.7 185.3a3 3 0 010-4.3l10.4-10.4a3 3 0 014.2 0l10.4 10.4a3 3 0 010 4.3l-10.4 10.4a3 3 0 01-4.2 0l-10.4-10.4z" fill="#8CDD94"/>
  <path d="M444.1 169.2c0 .1-.1.3-.3.3h-34.9a.3.3 0 01-.3-.3v-16a17.8 17.8 0 0135.5 0v16z" fill="#F8D162"/>
  <path d="M74.9 63.7a3 3 0 010-4.2L104 30.3a3 3 0 014.2 0l29.2 29.2a3 3 0 010 4.2L108.2 93a3 3 0 01-4.2 0L74.9 63.7z" fill="#FF8585"/>
  <path d="M92.7 98.2a3 3 0 013-3h21a3 3 0 013 3v97.7a3 3 0 01-3 3h-21a3 3 0 01-3-3V98.2z" fill="#F8D162"/>
  <path d="M121.3 15a15 15 0 11-30.2.1 15 15 0 0130.2 0z" fill="#C8D1FF"/>
  <path d="M13.9 139a13.5 13.5 0 1127 0 13.5 13.5 0 01-27 0z" fill="#8CDD94"/>
  <path d="M43.6 152.5c.2 0 .4.2.4.4v44.8c0 .2-.2.4-.4.4H22.8a22.8 22.8 0 010-45.6h20.8z" fill="#C8D1FF"/>
</svg>

