<svg width="30" height="34" viewBox="0 0 30 34" fill="none" xmlns="http://www.w3.org/2000/svg">
<g filter="url(#filter0_d)">
<path d="M19.5 10.3635C19.5 12.8499 17.4864 14.8635 15 14.8635C12.5136 14.8635 10.5 12.8499 10.5 10.3635C10.5 7.87717 12.5136 5.86353 15 5.86353C17.4864 5.86353 19.5 7.87717 19.5 10.3635ZM5.5 22.8635C5.5 22.2159 5.82044 21.6117 6.43228 21.047C7.04751 20.4791 7.92348 19.9858 8.93437 19.5808C10.957 18.7705 13.3938 18.3635 15 18.3635C16.6062 18.3635 19.043 18.7705 21.0656 19.5808C22.0765 19.9858 22.9525 20.4791 23.5677 21.047C24.1796 21.6117 24.5 22.2159 24.5 22.8635V24.8635H5.5V22.8635Z" stroke="black"/>
</g>
<defs>
<filter id="filter0_d" x="-4" y="0.363525" width="38" height="38" filterUnits="userSpaceOnUse" color-interpolation-filters="sRGB">
<feFlood flood-opacity="0" result="BackgroundImageFix"/>
<feColorMatrix in="SourceAlpha" type="matrix" values="0 0 0 0 0 0 0 0 0 0 0 0 0 0 0 0 0 0 127 0"/>
<feOffset dy="4"/>
<feGaussianBlur stdDeviation="2"/>
<feColorMatrix type="matrix" values="0 0 0 0 0 0 0 0 0 0 0 0 0 0 0 0 0 0 0.25 0"/>
<feBlend mode="normal" in2="BackgroundImageFix" result="effect1_dropShadow"/>
<feBlend mode="normal" in="SourceGraphic" in2="effect1_dropShadow" result="shape"/>
</filter>
</defs>
</svg>
