<svg width="30" height="31" viewBox="0 0 30 31" fill="none" xmlns="http://www.w3.org/2000/svg">
<path d="M19.5 10.3636C19.5 12.85 17.4864 14.8636 15 14.8636C12.5136 14.8636 10.5 12.85 10.5 10.3636C10.5 7.87729 12.5136 5.86365 15 5.86365C17.4864 5.86365 19.5 7.87729 19.5 10.3636ZM5.5 22.8636C5.5 22.216 5.82044 21.6118 6.43228 21.0471C7.04751 20.4793 7.92348 19.9859 8.93437 19.5809C10.957 18.7707 13.3938 18.3636 15 18.3636C16.6062 18.3636 19.043 18.7707 21.0656 19.5809C22.0765 19.9859 22.9525 20.4793 23.5677 21.0471C24.1796 21.6118 24.5 22.216 24.5 22.8636V24.8636H5.5V22.8636Z" stroke="black"/>
</svg>
